<mxfile host="app.diagrams.net" modified="2023-07-03T17:32:35.964Z" agent="Mozilla/5.0 (Windows NT 10.0; Win64; x64) AppleWebKit/537.36 (KHTML, like Gecko) Chrome/114.0.0.0 Safari/537.36" etag="nWA2jmOZ0hDEUrpqoTyh" version="21.2.3" type="device">
  <diagram name="Page-1" id="55a83fd1-7818-8e21-69c5-c3457e3827bb">
    <mxGraphModel dx="1323" dy="1620" grid="1" gridSize="10" guides="1" tooltips="1" connect="1" arrows="1" fold="1" page="1" pageScale="1" pageWidth="1100" pageHeight="850" background="none" math="0" shadow="0">
      <root>
        <mxCell id="0" />
        <mxCell id="1" parent="0" />
        <mxCell id="PzbdAQ2xHmQ-WiJ18Qqp-21" style="edgeStyle=orthogonalEdgeStyle;rounded=0;orthogonalLoop=1;jettySize=auto;html=1;exitX=1;exitY=0.25;exitDx=0;exitDy=0;entryX=0;entryY=0.25;entryDx=0;entryDy=0;" edge="1" parent="1" source="PzbdAQ2xHmQ-WiJ18Qqp-10">
          <mxGeometry relative="1" as="geometry">
            <mxPoint x="630" y="380" as="targetPoint" />
          </mxGeometry>
        </mxCell>
        <mxCell id="PzbdAQ2xHmQ-WiJ18Qqp-31" style="edgeStyle=orthogonalEdgeStyle;rounded=0;orthogonalLoop=1;jettySize=auto;html=1;exitX=0.25;exitY=0;exitDx=0;exitDy=0;" edge="1" parent="1" source="PzbdAQ2xHmQ-WiJ18Qqp-10">
          <mxGeometry relative="1" as="geometry">
            <mxPoint x="247" y="110" as="targetPoint" />
          </mxGeometry>
        </mxCell>
        <mxCell id="PzbdAQ2xHmQ-WiJ18Qqp-32" style="edgeStyle=orthogonalEdgeStyle;rounded=0;orthogonalLoop=1;jettySize=auto;html=1;entryX=0.75;entryY=0;entryDx=0;entryDy=0;" edge="1" parent="1" target="PzbdAQ2xHmQ-WiJ18Qqp-10">
          <mxGeometry relative="1" as="geometry">
            <mxPoint x="362" y="170" as="targetPoint" />
            <mxPoint x="363" y="110" as="sourcePoint" />
          </mxGeometry>
        </mxCell>
        <mxCell id="PzbdAQ2xHmQ-WiJ18Qqp-10" value="Client" style="swimlane;whiteSpace=wrap;html=1;startSize=23;" vertex="1" parent="1">
          <mxGeometry x="190" y="330" width="230" height="200" as="geometry" />
        </mxCell>
        <mxCell id="PzbdAQ2xHmQ-WiJ18Qqp-16" value="www.foobar.com" style="text;html=1;align=center;verticalAlign=middle;resizable=0;points=[];autosize=1;strokeColor=none;fillColor=none;fontSize=19;" vertex="1" parent="PzbdAQ2xHmQ-WiJ18Qqp-10">
          <mxGeometry x="35" y="80" width="160" height="40" as="geometry" />
        </mxCell>
        <mxCell id="PzbdAQ2xHmQ-WiJ18Qqp-22" style="edgeStyle=orthogonalEdgeStyle;rounded=0;orthogonalLoop=1;jettySize=auto;html=1;exitX=0;exitY=0.75;exitDx=0;exitDy=0;entryX=1;entryY=0.75;entryDx=0;entryDy=0;" edge="1" parent="1" target="PzbdAQ2xHmQ-WiJ18Qqp-10">
          <mxGeometry relative="1" as="geometry">
            <mxPoint x="630" y="480" as="sourcePoint" />
          </mxGeometry>
        </mxCell>
        <mxCell id="PzbdAQ2xHmQ-WiJ18Qqp-12" value="DNS server" style="swimlane;whiteSpace=wrap;html=1;" vertex="1" parent="1">
          <mxGeometry x="630" y="330" width="200" height="200" as="geometry" />
        </mxCell>
        <mxCell id="PzbdAQ2xHmQ-WiJ18Qqp-18" value="The DNS server &lt;br style=&quot;font-size: 16px;&quot;&gt;retrieves the IP adress" style="text;html=1;align=center;verticalAlign=middle;resizable=0;points=[];autosize=1;strokeColor=none;fillColor=none;fontSize=16;" vertex="1" parent="PzbdAQ2xHmQ-WiJ18Qqp-12">
          <mxGeometry x="10" y="80" width="180" height="50" as="geometry" />
        </mxCell>
        <mxCell id="PzbdAQ2xHmQ-WiJ18Qqp-15" value="The User Request acces&lt;br style=&quot;font-size: 17px;&quot;&gt;&amp;nbsp;to the web domain" style="text;html=1;align=center;verticalAlign=middle;resizable=0;points=[];autosize=1;strokeColor=none;fillColor=none;fontSize=17;" vertex="1" parent="1">
          <mxGeometry x="200" y="540" width="210" height="50" as="geometry" />
        </mxCell>
        <mxCell id="PzbdAQ2xHmQ-WiJ18Qqp-26" value="Server" style="swimlane;whiteSpace=wrap;html=1;startSize=40;fontSize=20;" vertex="1" parent="1">
          <mxGeometry x="25" y="-410" width="560" height="520" as="geometry" />
        </mxCell>
        <mxCell id="PzbdAQ2xHmQ-WiJ18Qqp-40" style="edgeStyle=orthogonalEdgeStyle;rounded=0;orthogonalLoop=1;jettySize=auto;html=1;exitX=0.5;exitY=0;exitDx=0;exitDy=0;entryX=0.5;entryY=1;entryDx=0;entryDy=0;" edge="1" parent="PzbdAQ2xHmQ-WiJ18Qqp-26" source="PzbdAQ2xHmQ-WiJ18Qqp-36" target="PzbdAQ2xHmQ-WiJ18Qqp-37">
          <mxGeometry relative="1" as="geometry" />
        </mxCell>
        <mxCell id="PzbdAQ2xHmQ-WiJ18Qqp-41" style="edgeStyle=orthogonalEdgeStyle;rounded=0;orthogonalLoop=1;jettySize=auto;html=1;exitX=1;exitY=0.5;exitDx=0;exitDy=0;entryX=0;entryY=0.5;entryDx=0;entryDy=0;" edge="1" parent="PzbdAQ2xHmQ-WiJ18Qqp-26" source="PzbdAQ2xHmQ-WiJ18Qqp-36" target="PzbdAQ2xHmQ-WiJ18Qqp-38">
          <mxGeometry relative="1" as="geometry" />
        </mxCell>
        <mxCell id="PzbdAQ2xHmQ-WiJ18Qqp-36" value="Web server" style="whiteSpace=wrap;html=1;fontSize=20;" vertex="1" parent="PzbdAQ2xHmQ-WiJ18Qqp-26">
          <mxGeometry x="55" y="350" width="170" height="120" as="geometry" />
        </mxCell>
        <mxCell id="PzbdAQ2xHmQ-WiJ18Qqp-37" value="Code Base" style="whiteSpace=wrap;html=1;fontSize=20;" vertex="1" parent="PzbdAQ2xHmQ-WiJ18Qqp-26">
          <mxGeometry x="55" y="130" width="170" height="120" as="geometry" />
        </mxCell>
        <mxCell id="PzbdAQ2xHmQ-WiJ18Qqp-42" style="edgeStyle=orthogonalEdgeStyle;rounded=0;orthogonalLoop=1;jettySize=auto;html=1;exitX=0.5;exitY=0;exitDx=0;exitDy=0;entryX=0.5;entryY=1;entryDx=0;entryDy=0;" edge="1" parent="PzbdAQ2xHmQ-WiJ18Qqp-26" source="PzbdAQ2xHmQ-WiJ18Qqp-38" target="PzbdAQ2xHmQ-WiJ18Qqp-39">
          <mxGeometry relative="1" as="geometry" />
        </mxCell>
        <mxCell id="PzbdAQ2xHmQ-WiJ18Qqp-38" value="Aplication server" style="whiteSpace=wrap;html=1;fontSize=20;" vertex="1" parent="PzbdAQ2xHmQ-WiJ18Qqp-26">
          <mxGeometry x="325" y="350" width="170" height="120" as="geometry" />
        </mxCell>
        <mxCell id="PzbdAQ2xHmQ-WiJ18Qqp-39" value="Data base" style="whiteSpace=wrap;html=1;fontSize=20;" vertex="1" parent="PzbdAQ2xHmQ-WiJ18Qqp-26">
          <mxGeometry x="325" y="130" width="170" height="120" as="geometry" />
        </mxCell>
        <mxCell id="PzbdAQ2xHmQ-WiJ18Qqp-50" style="edgeStyle=orthogonalEdgeStyle;rounded=0;orthogonalLoop=1;jettySize=auto;html=1;exitX=0.25;exitY=1;exitDx=0;exitDy=0;entryX=0.5;entryY=1;entryDx=0;entryDy=0;" edge="1" parent="PzbdAQ2xHmQ-WiJ18Qqp-26" source="PzbdAQ2xHmQ-WiJ18Qqp-26" target="PzbdAQ2xHmQ-WiJ18Qqp-36">
          <mxGeometry relative="1" as="geometry" />
        </mxCell>
        <mxCell id="PzbdAQ2xHmQ-WiJ18Qqp-43" value="IP Request" style="text;html=1;align=center;verticalAlign=middle;resizable=0;points=[];autosize=1;strokeColor=none;fillColor=none;" vertex="1" parent="1">
          <mxGeometry x="480" y="350" width="80" height="30" as="geometry" />
        </mxCell>
        <mxCell id="PzbdAQ2xHmQ-WiJ18Qqp-44" value="IP Response 8.8.8.8" style="text;html=1;align=center;verticalAlign=middle;resizable=0;points=[];autosize=1;strokeColor=none;fillColor=none;" vertex="1" parent="1">
          <mxGeometry x="455" y="448" width="130" height="30" as="geometry" />
        </mxCell>
        <mxCell id="PzbdAQ2xHmQ-WiJ18Qqp-46" value="HTTP Request" style="text;html=1;strokeColor=none;fillColor=none;align=center;verticalAlign=middle;whiteSpace=wrap;rounded=0;" vertex="1" parent="1">
          <mxGeometry x="190" y="170" width="60" height="30" as="geometry" />
        </mxCell>
        <mxCell id="PzbdAQ2xHmQ-WiJ18Qqp-49" value="HTTP&lt;br&gt;Response&lt;br&gt;" style="text;html=1;align=center;verticalAlign=middle;resizable=0;points=[];autosize=1;strokeColor=none;fillColor=none;" vertex="1" parent="1">
          <mxGeometry x="360" y="165" width="80" height="40" as="geometry" />
        </mxCell>
      </root>
    </mxGraphModel>
  </diagram>
</mxfile>
